<?xml version="1.0" encoding="UTF-8"?>
<svg width="60px" height="21px" viewBox="0 0 60 21" version="1.1" xmlns="http://www.w3.org/2000/svg" xmlns:xlink="http://www.w3.org/1999/xlink">
    <!-- Generator: Sketch 50.2 (55047) - http://www.bohemiancoding.com/sketch -->
    <title>TCM</title>
    <desc>Created with Sketch.</desc>
    <defs></defs>
    <g id="Page-1" stroke="none" stroke-width="1" fill="none" fill-rule="evenodd">
        <g id="Artboard" transform="translate(0.000000, -20.000000)" fill="#FFFFFF">
            <path d="M5.8980248,24.1065687 L0,24.1065687 L0,20.4685347 L16.1231052,20.4685347 L16.1231052,24.1065687 L10.2250804,24.1065687 L10.2250804,40.1469913 L5.8980248,40.1469913 L5.8980248,24.1065687 Z M31.5020671,27.0831419 C31.4285711,26.5870439 31.2632075,26.1322942 31.0059715,25.7188792 C30.7487355,25.3054642 30.4271953,24.9425831 30.0413413,24.6302251 C29.6554873,24.3178671 29.2191113,24.0744152 28.7322003,23.8998622 C28.2452893,23.7253092 27.7354184,23.638034 27.2025723,23.638034 C26.2287503,23.638034 25.4019327,23.8263647 24.7220946,24.2030317 C24.0422566,24.5796987 23.4910448,25.0849762 23.0684428,25.7188792 C22.6458408,26.3527822 22.3380809,27.0739509 22.1451539,27.882407 C21.9522269,28.690863 21.8557648,29.5268675 21.8557648,30.3904456 C21.8557648,31.2172756 21.9522269,32.0211261 22.1451539,32.8020211 C22.3380809,33.5829162 22.6458408,34.2857112 23.0684428,34.9104272 C23.4910448,35.5351432 24.0422566,36.0358272 24.7220946,36.4124943 C25.4019327,36.7891613 26.2287503,36.977492 27.2025723,36.977492 C28.5255004,36.977492 29.5590225,36.57327 30.3031695,35.764814 C31.0473165,34.9563579 31.5020662,33.8906819 31.6674322,32.5677538 L35.8566835,32.5677538 C35.7464395,33.7988119 35.4616468,34.9104222 35.0022967,35.9026183 C34.5429467,36.8948143 33.9366138,37.7400057 33.1832797,38.4382177 C32.4299457,39.1364298 31.5480069,39.6692678 30.5374368,40.0367478 C29.5268668,40.4042278 28.4152564,40.5879651 27.2025723,40.5879651 C25.6959043,40.5879651 24.340842,40.3261395 23.137345,39.8024805 C21.9338479,39.2788215 20.9186996,38.5576527 20.0918695,37.6389527 C19.2650395,36.7202526 18.631146,35.6407963 18.19017,34.4005512 C17.7491939,33.1603062 17.5287092,31.8236176 17.5287092,30.3904456 C17.5287092,28.9205255 17.7491939,27.5562764 18.19017,26.2976573 C18.631146,25.0390383 19.2650395,23.9412082 20.0918695,23.0041341 C20.9186996,22.0670601 21.9338479,21.3321111 23.137345,20.799265 C24.340842,20.266419 25.6959043,20 27.2025723,20 C28.2866384,20 29.3109736,20.1561767 30.2756086,20.4685347 C31.2402437,20.7808927 32.1038088,21.2356424 32.8663298,21.8327974 C33.6288508,22.4299525 34.2581509,23.1694949 34.754249,24.0514469 C35.250347,24.933399 35.5627003,25.9439539 35.6913183,27.0831419 L31.5020671,27.0831419 Z M38.8056959,20.4685347 L44.8966468,20.4685347 L49.499311,34.0009187 L49.5544327,34.0009187 L53.9090492,20.4685347 L60,20.4685347 L60,40.1469913 L55.9485531,40.1469913 L55.9485531,26.2011943 L55.8934313,26.2011943 L51.0702802,40.1469913 L47.7354157,40.1469913 L42.9122646,26.3389986 L42.8571429,26.3389986 L42.8571429,40.1469913 L38.8056959,40.1469913 L38.8056959,20.4685347 Z" id="TCM"></path>
        </g>
    </g>
</svg>