<?xml version="1.0" encoding="UTF-8"?>
<svg width="50px" height="50px" viewBox="0 0 50 50" version="1.1" xmlns="http://www.w3.org/2000/svg" xmlns:xlink="http://www.w3.org/1999/xlink">
    <!-- Generator: Sketch 50.2 (55047) - http://www.bohemiancoding.com/sketch -->
    <title>Artboard</title>
    <desc>Created with Sketch.</desc>
    <defs></defs>
    <g id="Artboard" stroke="none" stroke-width="1" fill="none" fill-rule="evenodd">
        <path d="M4.91502067,19.4221406 L0,19.4221406 L0,16.3904456 L13.435921,16.3904456 L13.435921,19.4221406 L8.52090032,19.4221406 L8.52090032,32.7891594 L4.91502067,32.7891594 L4.91502067,19.4221406 Z M26.2517226,21.9026183 C26.1904759,21.4892033 26.0526729,21.1102452 25.8383096,20.7657327 C25.6239463,20.4212201 25.3559961,20.1188192 25.0344511,19.8585209 C24.7129061,19.5982226 24.3492594,19.395346 23.9435002,19.2498852 C23.537741,19.1044243 23.1128486,19.031695 22.6688103,19.031695 C21.8572919,19.031695 21.1682772,19.1886372 20.6017455,19.5025264 C20.0352138,19.8164156 19.5758707,20.2374801 19.2237023,20.7657327 C18.871534,21.2939852 18.6150674,21.8949591 18.4542949,22.5686725 C18.2935224,23.2423859 18.2131373,23.9390563 18.2131373,24.6587046 C18.2131373,25.3477297 18.2935224,26.0176051 18.4542949,26.6683509 C18.6150674,27.3190968 18.871534,27.9047593 19.2237023,28.425356 C19.5758707,28.9459527 20.0352138,29.3631894 20.6017455,29.6770785 C21.1682772,29.9909677 21.8572919,30.14791 22.6688103,30.14791 C23.7712503,30.14791 24.6325187,29.8110583 25.2526412,29.137345 C25.8727638,28.4636316 26.2517219,27.5755682 26.3895269,26.4731282 L29.8805696,26.4731282 C29.7886996,27.4990099 29.5513723,28.4253519 29.1685806,29.2521819 C28.7857889,30.0790119 28.2805115,30.7833381 27.6527331,31.3651814 C27.0249548,31.9470248 26.2900057,32.3910565 25.447864,32.6972898 C24.6057223,33.0035232 23.6793803,33.1566376 22.6688103,33.1566376 C21.4132536,33.1566376 20.284035,32.9384496 19.2811208,32.5020671 C18.2782066,32.0656845 17.4322497,31.4647106 16.7432246,30.6991272 C16.0541996,29.9335439 15.525955,29.0339969 15.158475,28.0004593 C14.7909949,26.9669218 14.6072577,25.8530147 14.6072577,24.6587046 C14.6072577,23.4337712 14.7909949,22.296897 15.158475,21.2480478 C15.525955,20.1991986 16.0541996,19.2843401 16.7432246,18.5034451 C17.4322497,17.7225501 18.2782066,17.1100926 19.2811208,16.6660542 C20.284035,16.2220158 21.4132536,16 22.6688103,16 C23.5721987,16 24.4258113,16.1301472 25.2296739,16.3904456 C26.0335364,16.6507439 26.753174,17.029702 27.3886082,17.5273312 C28.0240424,18.0249604 28.5484591,18.6412458 28.9618741,19.3762058 C29.3752892,20.1111658 29.6355836,20.9532949 29.7427653,21.9026183 L26.2517226,21.9026183 Z M32.3380799,16.3904456 L37.4138723,16.3904456 L41.2494258,27.6674322 L41.2953606,27.6674322 L44.9242076,16.3904456 L50,16.3904456 L50,32.7891594 L46.6237942,32.7891594 L46.6237942,21.1676619 L46.5778594,21.1676619 L42.5585668,32.7891594 L39.7795131,32.7891594 L35.7602205,21.2824989 L35.7142857,21.2824989 L35.7142857,32.7891594 L32.3380799,32.7891594 L32.3380799,16.3904456 Z" id="TCM" fill="#000000"></path>
    </g>
</svg>